<svg xmlns="http://www.w3.org/2000/svg" xmlns:xlink="http://www.w3.org/1999/xlink" width="460" height="120" viewBox="0 0 460 120" fill="none"><g  clip-path="url(#clip-path-NynioTtLLA5SDPxCHRzwf)"><g  mask="url(#mask-fJaEXrP72A5ODlIcyn3MQ)"><path d="M323.2 56.5C321.8 60.3 320.5 63.8 319.6 67.5C318.8 71.1 317.5 75.7 320.1 79.7C321.8 81.9 323.9 82.6 325.8 83.2C330 83.8 333.4 82.8 341 80.5C351.8 77.1 362.4 72.8 367.1 70.8C371.8 68.8 372.4 68.8 379 65.9C385.6 63 389.6 61.2 395.4 58.7C401.2 56.2 418.9 48.1 425.2 45C431.5 41.9 438.9 38.5 443.3 36.4C443.634 36.2 443.934 36.0333 444.2 35.9C444.5 35.8 444.9 35.6 445.1 35.5C445.4 35.4 445.6 35.3 445.8 35.2C446.134 35.0667 446.367 34.9333 446.5 34.8C446.6 34.8 446.6 34.8 446.7 34.7C446.834 34.7 446.9 34.6667 446.9 34.6C447 34.6 447 34.6 447 34.6C447 34.6 447 34.6 446.9 34.7C446.7 34.8 446.6 34.9 446.4 35C444.2 36.1 441 37.7 437.2 39.6C430.1 43 429.2 43.4 419.6 48C409.9 52.6 404.2 55.3 392.6 60.4C381.1 65.4 378.6 67 362.1 73.5C345.4 79.4 344.2 82.1 326.2 84.2C326 84.2 325.8 84.1666 325.6 84.1C323.3 83.5 321.1 82.5 319.6 80.6C318 78.6 317.5 76 317.6 73.7C317.9 68.8 319.6 64.3 321.1 60.1C324.2 51.7 327 43.8 325.7 38.7C324.9 33.8 319.3 31.1 313.4 30.6C307.5 30.1 301 30.7 294.3 31.6C292.834 31.8667 291.334 32.1333 289.8 32.4C274.9 34.9 257 40.2 241.4 46.1C225.8 51.9 204.4 62 194.8 67.1C185.1 72.1 182.7 73.4 173.6 78.6C168.4 81.6 161.3 85.8 155.1 89.1C153.5 90 152.8 90 153 90C153.1 90 154.2 89.5 155.8 88.6C160.2 86.1 164 83.9 166.2 82.5C170.8 79.7 172.7 78.5 178.7 75.3C184.6 72.1 187.3 70.4 190.8 68.6C194.3 66.8 194.2 66.7 212.2 57.9C230.3 49.3 240.7 45.5 247.8 42.9C255 40.3 270.1 35.6 282.3 33C285.5 32.3 289.7 31.5 294.2 30.9C300.6 29.9 307.6 29.2 313.9 29.9C320.5 30.3 326 34.3 326.5 38.4C327.3 48.8 325.5 48.7 323.2 56.5Z"   fill="#79C314" ></path><path d="M183.6 58.2L194 58.2C194.467 57.4 194.933 56.6333 195.4 55.9L185.3 55.9L185.3 45.6L194.4 45.6L194.4 43.1L184.2 43.1L184.2 39.4L217.8 39.4L217.8 43.1L207.5 43.1L207.5 45.6L216.6 45.6L216.6 55.9L200.5 55.9C200.033 56.7 199.533 57.4667 199 58.2L218.4 58.2L218.4 61.9L211.7 61.9C210.433 63.5 208.967 64.9667 207.3 66.3L216.8 68.7L214.6 72.9C210.267 71.4333 206.3 70.1333 202.7 69C198.3 71.0667 192.8 72.3667 186.2 72.9C185.867 71.5667 185.333 70.2 184.6 68.8C189.267 68.6 193.233 68.1 196.5 67.3C193.433 66.4333 190.7 65.7667 188.3 65.3C189.367 64.1667 190.333 63.0333 191.2 61.9L183.6 61.9L183.6 58.2ZM198.6 45.6L203.3 45.6L203.3 43.2L198.6 43.2L198.6 45.6ZM198.6 52.3L203.3 52.3L203.3 49.1L198.6 49.1L198.6 52.3ZM189.8 52.3L194.4 52.3L194.4 49.2L189.8 49.2L189.8 52.3ZM212.2 52.3L212.2 49.1L207.5 49.1L207.5 52.3L212.2 52.3ZM195.2 63.6C197.133 63.9333 199.533 64.4333 202.4 65.1C204 64.1667 205.333 63.1 206.4 61.9L196.5 61.9C196.1 62.5 195.667 63.0667 195.2 63.6ZM220.3 62.8L219.4 57.8C221.6 57.6 223.767 57.3667 225.9 57.1L225.9 52.6L219.5 52.6L219.5 48.1L225.9 48.1L225.9 44.7L220.9 45C220.833 43.9333 220.633 42.4333 220.3 40.5C225.567 40.2333 230.6 39.7667 235.4 39.1L236.5 43.5C234.767 43.7 232.967 43.9333 231.1 44.2L231.1 48.1L237.9 48.1L237.4 38.1L242.4 38.1C242.467 41.5667 242.6 44.9 242.8 48.1L254.3 48.1L254.3 52.6L243 52.6C243.133 55.3333 243.367 57.6 243.7 59.4C245.767 57.5333 247.633 55.4 249.3 53L253.1 56.1C250.767 59.0333 248.133 61.7333 245.2 64.2C246.133 66.4667 247.167 67.6 248.3 67.6C248.5 67.6 248.667 67.5333 248.8 67.4C249 67.3333 249.267 66.7 249.6 65.5C249.867 64.3 250.133 62.8667 250.4 61.2C252 62.2667 253.433 63.0667 254.7 63.6C254.033 67.1333 253.267 69.5333 252.4 70.8C251.533 72 250.367 72.6 248.9 72.6C245.5 72.6 242.9 70.8333 241.1 67.3C239.167 68.6333 237.067 69.9 234.8 71.1C234.067 69.7667 233.1 68.4 231.9 67C234.7 65.8 237.267 64.4 239.6 62.8C238.933 60.2 238.467 56.8 238.2 52.6L231.1 52.6L231.1 56.5C233.1 56.2333 235.1 55.9667 237.1 55.7C237.033 56.7 237 57.6333 237 58.5C237 59.1667 237 59.8 237 60.4L231.1 61.1L231.1 68.1C231.1 69.4333 230.8 70.4333 230.2 71.1C229.667 71.7667 228.633 72.1667 227.1 72.3C225.567 72.4333 223.767 72.5 221.7 72.5C221.3 70.4333 220.867 68.8667 220.4 67.8C221.533 67.9333 222.7 68 223.9 68L224.6 68C225 68 225.3 67.8333 225.5 67.5C225.767 67.2333 225.9 66.7667 225.9 66.1L225.9 61.9L220.3 62.8ZM246.5 39C249.233 41.2 251.3 43 252.7 44.4C251.3 45.6 250.2 46.6333 249.4 47.5C247.667 45.5667 245.7 43.7 243.5 41.9L246.5 39ZM263 38C264.4 39.6 265.833 41.3667 267.3 43.3L265.7 44.4L271.6 44.4C270.6 42.4667 269.7 40.8667 268.9 39.6L273.2 37.7C274.133 39.1 275.233 40.9333 276.5 43.2L274 44.4L278.4 44.4C280 42.0667 281.333 40.0667 282.4 38.4L287.2 41L284.3 44.4L289.4 44.4L289.4 53L284.5 53L284.5 48.7L261.5 48.7L261.5 53L256.6 53L256.6 44.4L262.3 44.4C261.3 42.9333 260.3 41.6333 259.3 40.5L263 38ZM256 59.4L271.3 59.4L271.3 58.5L276.1 55.4L263.2 55.4L263.2 51.2L283 51.2L283 55.4L276.9 59.4L290 59.4L290 63.8L276.4 63.8L276.4 67.4C276.4 69 275.967 70.2333 275.1 71.1C274.167 72.0333 272.767 72.5 270.9 72.5C269.033 72.5 267.133 72.5 265.2 72.5C264.867 70.9 264.467 69.3667 264 67.9C265.8 67.9667 267.433 68 268.9 68C270.5 68 271.3 67.3 271.3 65.9L271.3 63.8L256 63.8L256 59.4ZM292.3 42L306.4 42L305.2 39.1L310.3 37.9L312 42L325.7 42L325.7 46.2L315.5 46.2L315.5 54.3L311 54.3L311 46.2L307 46.2L307 54.3L302.5 54.3L302.5 46.2L292.3 46.2L292.3 42ZM299.4 46.7L302.4 49.8C299.8 51.8 297.033 53.7333 294.1 55.6C293.233 54.2667 292.367 53.0667 291.5 52C294.3 50.3333 296.933 48.5667 299.4 46.7ZM318.5 46.9C320.9 48.4333 323.567 50.2333 326.5 52.3L323.4 55.8C321 53.8667 318.467 51.9333 315.8 50L318.5 46.9ZM320.8 55.1L320.8 59.1C319.133 61.5667 316.967 63.7 314.3 65.5C317.767 66.5667 321.8 67.2 326.4 67.4C326.067 68.0667 325.2 69.7667 323.8 72.5C318.067 71.9 313.133 70.6 309 68.6C304.867 70.5333 299.9 71.9667 294.1 72.9C293.433 71.4333 292.6 69.9 291.6 68.3C296.333 67.7 300.533 66.7667 304.2 65.5C301.933 63.7667 300.033 61.7 298.5 59.3L296.1 59.3L296.1 55.1L320.8 55.1ZM309 63.4C311.333 62.2667 313.4 60.9 315.2 59.3L303.6 59.3C305.067 60.9 306.867 62.2667 309 63.4ZM328.3 62.7L327.4 57.7C329.533 57.5 331.667 57.3 333.8 57.1L333.8 52.6L327.4 52.6L327.4 48.1L333.8 48.1L333.8 44.6L328.9 45C328.767 43.9333 328.533 42.4333 328.2 40.5C333.467 40.1667 338.533 39.6667 343.4 39L344.4 43.4C342.733 43.6667 340.933 43.9 339 44.1L339 48.1L345.9 48.1L345.4 38.1L350.4 38.1C350.467 41.5 350.567 44.8333 350.7 48.1L362.3 48.1L362.3 52.6L350.9 52.6C351.1 55.2667 351.367 57.5333 351.7 59.4C353.767 57.4667 355.6 55.3333 357.2 53L361 56C358.667 59 356.033 61.7 353.1 64.1C354.033 66.3667 355.1 67.5 356.3 67.5C356.433 67.5 356.6 67.4667 356.8 67.4C357 67.2667 357.233 66.6333 357.5 65.5C357.833 64.3 358.1 62.8333 358.3 61.1C359.967 62.1667 361.4 62.9667 362.6 63.5C361.933 67.0333 361.2 69.4333 360.4 70.7C359.533 71.9667 358.333 72.6 356.8 72.6C353.467 72.6 350.9 70.8 349.1 67.2C347.1 68.5333 345 69.8 342.8 71C342.067 69.7333 341.1 68.3667 339.9 66.9C342.633 65.7667 345.167 64.3667 347.5 62.7C346.833 60.1 346.367 56.7333 346.1 52.6L339 52.6L339 56.5C341.067 56.2333 343.067 55.9333 345 55.6C344.933 56.6667 344.9 57.6333 344.9 58.5C344.9 59.1667 344.933 59.7667 345 60.3L339 61.1L339 68.1C339 69.3667 338.733 70.3333 338.2 71C337.6 71.7333 336.533 72.1333 335 72.2C333.467 72.3333 331.7 72.4 329.7 72.4C329.3 70.3333 328.833 68.8 328.3 67.8C329.5 67.8667 330.667 67.9 331.8 67.9L332.5 67.9C332.967 67.9 333.3 67.7667 333.5 67.5C333.7 67.1667 333.8 66.7 333.8 66.1L333.8 61.8L328.3 62.7ZM354.6 38.9C357.267 41.1667 359.3 42.9667 360.7 44.3C359.367 45.5667 358.267 46.6333 357.4 47.5C355.667 45.5667 353.733 43.7 351.6 41.9L354.6 38.9ZM363.6 58.1L374 58.1C374.533 57.3 375 56.5 375.4 55.7L365.4 55.7L365.4 45.4L374.5 45.4L374.5 43L364.3 43L364.3 39.3L397.8 39.3L397.8 43L387.6 43L387.6 45.4L396.7 45.4L396.7 55.7L380.6 55.7C380.067 56.5667 379.567 57.3667 379.1 58.1L398.4 58.1L398.4 61.8L391.7 61.8C390.5 63.4 389.067 64.8333 387.4 66.1L396.8 68.5L394.6 72.8C390.333 71.2667 386.367 69.9667 382.7 68.9C378.3 70.9667 372.8 72.2667 366.2 72.8C365.867 71.4667 365.333 70.0667 364.6 68.6C369.267 68.4 373.267 67.9 376.6 67.1C373.533 66.3 370.767 65.6667 368.3 65.2C369.367 64.0667 370.367 62.9333 371.3 61.8L363.6 61.8L363.6 58.1ZM378.7 45.4L383.4 45.4L383.4 43L378.7 43L378.7 45.4ZM378.7 52.2L383.4 52.2L383.4 49L378.7 49L378.7 52.2ZM369.8 52.2L374.5 52.2L374.5 49L369.8 49L369.8 52.2ZM392.3 52.2L392.3 49.1L387.6 49.1L387.6 52.2L392.3 52.2ZM375.3 63.5C377.167 63.8333 379.567 64.3333 382.5 65C384.033 64.1333 385.333 63.1 386.4 61.9L376.5 61.9C376.1 62.4333 375.7 62.9667 375.3 63.5ZM407.1 37.9C408.5 39.5 409.933 41.2667 411.4 43.2L409.8 44.3L415.7 44.3C414.7 42.4333 413.8 40.8333 413 39.5L417.2 37.6C418.133 39 419.233 40.8667 420.5 43.2L418.1 44.3L422.4 44.3C424 41.9667 425.367 39.9667 426.5 38.3L431.2 40.9L428.4 44.3L433.4 44.3L433.4 52.9L428.5 52.9L428.5 48.6L405.6 48.6L405.6 52.9L400.6 52.9L400.6 44.3L406.4 44.3C405.333 42.9 404.333 41.6 403.4 40.4L407.1 37.9ZM400.1 59.3L415.4 59.3L415.4 58.4L420.1 55.4L407.3 55.4L407.3 51.1L427.1 51.1L427.1 55.3L421 59.3L434.1 59.3L434.1 63.7L420.5 63.7L420.5 67.3C420.5 68.9 420.033 70.1333 419.1 71C418.233 71.9333 416.867 72.4 415 72.4C413.133 72.4 411.233 72.4 409.3 72.4C408.967 70.8 408.567 69.2667 408.1 67.8C409.833 67.8667 411.467 67.9 413 67.9C414.6 67.9 415.4 67.2 415.4 65.8L415.4 63.7L400.1 63.7L400.1 59.3Z"   fill="#79C314" ></path><path d="M189.3 84.6L191.3 84.6L191.3 86.9L196.2 86.9L196.2 88.7L191.3 88.7L191.3 92.3C191.3 93.0333 191.133 93.6 190.8 94C190.533 94.4 190.1 94.6 189.5 94.6C188.9 94.6667 188.1 94.7 187.1 94.7C186.967 93.9 186.8 93.2333 186.6 92.7C187.267 92.7667 187.867 92.8 188.4 92.8C189 92.8 189.3 92.5 189.3 91.9L189.3 88.7L183.8 88.7L184.8 82.2C188.2 82.2 191.533 82 194.8 81.6L195.5 83.4C192.767 83.6667 189.833 83.8333 186.7 83.9L186.2 86.9L189.3 86.9L189.3 84.6ZM186.2 89L187.9 90C186.967 91.5333 185.9 92.9333 184.7 94.2C184.167 93.6667 183.667 93.2333 183.2 92.9C184.333 91.7667 185.333 90.4667 186.2 89ZM193.9 89.1C194.633 89.9667 195.6 91.2333 196.8 92.9C196.133 93.3 195.533 93.7 195 94.1C194 92.3667 193.133 91.0333 192.4 90.1L193.9 89.1ZM234.5 86.6L236.5 86.6C236.167 85.9333 235.867 85.4333 235.6 85.1L237 84.4L234.9 84.4L234.9 82.7L238.1 82.7C237.967 82.3667 237.8 82 237.6 81.6L239.7 81.3C239.833 81.7 240 82.1667 240.2 82.7L243.2 82.7L243.2 84.4L241 84.4L242.4 85.1C242.133 85.5667 241.833 86.0667 241.5 86.6L243.5 86.6L243.5 88.2L234.5 88.2L234.5 86.6ZM238.5 86.1L237.4 86.6L239.4 86.6C239.8 85.8667 240.2 85.1333 240.6 84.4L237.4 84.4C237.733 84.8667 238.1 85.4333 238.5 86.1ZM230.3 93.7L229.9 91.6L231.5 91.2L231.5 86.5L230.1 86.5L230.1 84.6L231.5 84.6L231.5 81.4L233.3 81.4L233.3 84.6L234.7 84.6L234.7 86.5L233.3 86.5L233.3 90.7L234.8 90.3C234.8 90.9 234.8 91.5667 234.8 92.3C233.133 92.7667 231.633 93.2333 230.3 93.7ZM235.2 94.8L235.2 89.1L242.8 89.1L242.8 94.8L241 94.8L241 94.1L237 94.1L237 94.8L235.2 94.8ZM241 90.7L237 90.7L237 92.5L241 92.5L241 90.7ZM277.3 92.4L283 92.4L283 90.1L279 90.1L279 88.2L283 88.2L283 86L279.7 86C279.1 87.1333 278.433 88.2 277.7 89.2C277.433 88.4667 277.133 87.7 276.8 86.9C277.733 85.6333 278.533 83.9667 279.2 81.9L281.2 82.4C281 83 280.8 83.5667 280.6 84.1L283 84.1L283 81.4L285.1 81.4L285.1 84.1L289.6 84.1L289.6 86L285.1 86L285.1 88.2L289.1 88.2L289.1 90.1L285.1 90.1L285.1 92.4L290.1 92.4L290.1 94.3L277.3 94.3L277.3 92.4ZM323.5 83.8L325.1 83.8C325.233 83 325.333 82.1667 325.4 81.3L327.3 81.5L326.9 83.8L329.6 83.8C329.533 86.9333 329.067 89.3667 328.2 91.1L330.1 92.7L328.7 94.2C328.233 93.6667 327.733 93.1333 327.2 92.6C326.467 93.4 325.633 94.1 324.7 94.7C324.3 94.1667 323.9 93.6667 323.5 93.2C324.367 92.6667 325.133 92.0333 325.8 91.3C325.2 90.7 324.567 90.1333 323.9 89.6C324.233 88.4 324.533 87.0333 324.8 85.5L323.5 85.5L323.5 83.8ZM325.9 89.1L326.7 89.9C327.233 88.7667 327.567 87.3 327.7 85.5L326.6 85.5C326.4 86.7667 326.167 87.9667 325.9 89.1ZM329.7 87.2L332.6 87.2L332.6 85.9L334.5 83.8L330.1 83.8L330.1 82L336.9 82L336.9 83.9L334.5 86.6L334.5 87.2L337.1 87.2L337.1 89.1L334.5 89.1L334.5 92.5C334.5 92.7667 334.433 93.1 334.3 93.5C334.233 93.8333 334.033 94.1333 333.7 94.4C333.367 94.6667 332.833 94.8 332.1 94.8C331.367 94.8 330.833 94.8 330.5 94.8C330.367 94.2 330.233 93.6 330.1 93C330.833 93.0667 331.367 93.1 331.7 93.1C332.3 93.1 332.6 92.7 332.6 91.9L332.6 89.1L329.7 89.1L329.7 87.2ZM377.5 94.5C377.367 93.9 377.2 93.2333 377 92.5C378 92.5667 378.833 92.6 379.5 92.6C380.1 92.6 380.467 92.3333 380.6 91.8C380.733 91.2667 380.8 88.7 380.8 84.1L371.1 84.1L371.1 82.3L382.9 82.3C382.833 84.0333 382.767 85.9667 382.7 88.1L382.6 92.2C382.6 92.8 382.433 93.3 382.1 93.7C381.767 94.1 381.333 94.3333 380.8 94.4C380.267 94.4667 379.167 94.5 377.5 94.5ZM372.9 85.9L374 84.4C375.467 85.4 376.7 86.3 377.7 87.1L376.3 88.7C375.167 87.7 374.033 86.7667 372.9 85.9ZM370.7 90.8C374.167 89.8 377.333 88.8 380.2 87.8C380.2 88.2 380.2 88.8333 380.2 89.7C377.6 90.7 374.667 91.7667 371.4 92.9L370.7 90.8ZM421.1 84L422.1 84L422.3 81.8L429.6 81.8L429.5 84L430.6 84L430.6 85.2L429.5 85.2L429.4 87.4L421.8 87.4L422 85.2L421.2 85.2L421.7 85.6L421.1 87.2C420.9 87 420.667 86.7667 420.4 86.5L420.4 94.8L418.8 94.8L418.8 81.4L420.4 81.4L420.4 84.7L421.1 85.2L421.1 84ZM423.7 84L425 84L425.1 83.1L423.7 83.1L423.7 84ZM428.1 83.1L426.7 83.1L426.7 84L428 84L428.1 83.1ZM423.6 86.1L425.1 86.1L425.1 85.2L423.7 85.2L423.6 86.1ZM428 86.1L428 85.2L426.6 85.2L426.6 86.1L428 86.1ZM417 88.4C417.267 87 417.433 85.6 417.5 84.2L418.7 84.3C418.567 85.8333 418.4 87.2333 418.2 88.5C417.8 88.4333 417.4 88.4 417 88.4ZM421.9 92.3L421.9 88L429.9 88L429.9 92.3L428.2 92.3L428.2 89.5L423.6 89.5L423.6 92.3L421.9 92.3ZM425.1 90L426.8 90C426.8 90.6 426.733 91.1667 426.6 91.7L430.6 93.4L429.8 94.9C428.467 94.2333 427.167 93.5667 425.9 92.9C425.1 93.9 423.8 94.5667 422 94.9C421.733 94.4333 421.433 93.9 421.1 93.3C423.833 93.0333 425.167 91.9333 425.1 90Z"   fill="#000000" ></path><path d="M442.2 39.1C442.7 38.8 444.8 38.9 445.7 39C446.7 39 449 40.8 449.8 43.1C450.3 44.3 450.8 46 450.8 46C450.8 46 447.8 43 445.7 41C444.7 40 442.2 39.1 442.2 39.1Z"   fill="#79C314" ></path><path d="M441.6 41C441.5 41.2 441.7 41.6 441.7 41.9C441.8 42.3 442.5 43 442.9 43.7C443.1 44.1 443.7 45.1 443.7 45.1C443.7 45.1 443.1 42.9 442.4 42C442.1 41.6 441.6 41 441.6 41Z"   fill="#79C314" ></path><path d="M150.9 62.8C150.9 63 151.2 63.3 151.3 63.6C151.4 63.9 152.3 64.4 152.9 65C153.2 65.3 154 66.1 154 66.1C154 66.1 152.8 64.1 151.9 63.5C151.5 63.2 150.9 62.8 150.9 62.8Z"   fill="#79C314" ></path></g></g><path d="M152.267 50.8503C152.267 50.8503 153.528 50.5495 154.219 50.8503C154.939 51.1511 155.63 52.2341 155.63 52.2642C153.768 55.1821 149.836 61.1383 149.175 61.8302C148.515 62.492 141.79 74.284 138.518 80.0898C136.087 83.0978 131.223 89.2044 131.223 89.6557C131.223 90.1069 123.358 102.771 119.426 109.058C119.426 109.058 118.435 109.75 117.745 109.63C117.054 109.51 116.334 108.517 116.334 108.517L121.377 99.2518C123.238 96.5444 127.051 91.0394 127.261 90.8289C127.501 90.5882 131.854 83.6092 133.985 80.15L139.869 72.5694L152.267 50.8503ZM150.856 62.6724C150.856 62.6724 151.457 63.0635 151.877 63.3944C152.718 64.0562 153.948 66.0416 153.948 66.0416C153.948 66.0416 153.108 65.1993 152.838 64.9286C152.267 64.357 151.367 63.8757 151.247 63.5148C151.097 63.1839 150.826 62.883 150.856 62.6724ZM154.219 59.574C155.149 59.3936 157.851 60.4765 159.262 62.3716C160.012 63.3944 160.943 64.8985 160.943 64.8985C160.943 64.8985 157.311 62.853 154.759 61.5294C153.498 60.8675 150.856 60.6871 150.826 60.6871C151.307 60.2659 153.288 59.7545 154.219 59.574Z"   fill="#79C314" ></path><path d="M91.9311 15.9451C95.4734 14.1402 99.5862 14.7118 102.468 17.0882C109.613 15.7947 116.848 14.3809 124.623 16.3061C126.664 16.9679 128.916 17.6598 131.047 18.7126C131.077 18.7126 131.107 18.7427 131.137 18.7427C133.479 19.9159 135.64 21.5403 137.051 24.0672C139.332 28.3689 137.801 33.0015 140.683 35.2275C141.794 36.0999 143.625 36.5511 145.216 36.8218L145.787 36.8519L145.787 37.4536C145.487 40.4316 145.276 43.4398 143.835 46.2375C143.295 47.1099 142.454 47.6815 141.614 48.1628C140.533 48.7343 139.392 49.1254 138.222 49.366C139.362 49.0351 140.473 48.5538 141.464 47.892C142.244 47.3807 142.965 46.7489 143.355 45.9668C144.376 43.5602 144.436 40.7024 144.496 37.995C142.875 37.8145 141.254 37.5739 139.663 36.5812C135.49 33.4828 136.811 28.0981 134.739 25.4509C132.518 22.1119 128.015 20.9688 123.632 19.9761C123.572 19.9761 123.482 19.946 123.422 19.946C122.822 19.8557 122.251 19.7956 121.651 19.7354C115.917 19.2842 109.553 20.8785 103.609 22.5029C102.768 22.7436 101.928 23.0143 101.117 23.255C88.9291 28.9705 80.1033 40.7024 78.4822 54.6304C82.3548 59.1125 96.8544 74.7551 110.543 76.2591C123.782 77.7331 130.026 65.2191 143.986 72.1981C147.648 74.0331 152.781 82.8771 147.648 90.6081C145.276 94.1879 136.811 98.7302 130.507 100.084C126.514 101.317 122.281 101.979 117.898 101.979C98.2053 101.979 81.6343 88.5927 76.7411 70.4233C71.8478 88.5927 55.2769 101.979 35.5839 101.979C29.9401 101.979 24.5366 100.866 19.5833 98.8806C40.9274 97.0456 57.6184 80.0194 57.6184 59.293C57.6184 38.5666 40.8974 21.5403 19.5833 19.7053C24.5366 17.6898 29.9101 16.6069 35.5839 16.6069C55.2769 16.6069 71.8478 29.9933 76.7411 48.1628C78.7224 40.8227 82.5949 34.2649 87.8184 29.0607C87.7884 29.0006 87.7583 28.9705 87.7583 28.9103C85.3267 24.2176 87.188 18.3817 91.9311 15.9451ZM131.107 29.2112C132.518 29.2112 134.529 30.4746 134.259 31.9185C133.539 35.769 133.689 39.7097 131.107 42.0561L130.987 42.1463C128.435 44.2219 121.621 42.9585 119.97 40.1007L119.88 39.9503C118.048 36.3706 121.26 33.3624 124.563 31.0461C126.724 29.6022 128.495 29.2112 131.107 29.2112Z"   fill="#000000" ></path><defs><clipPath id="clip-path-NynioTtLLA5SDPxCHRzwf"><path d="M6 110L451 110L451 15L6 15L6 110Z" fill="white"/></clipPath><mask id="mask-fJaEXrP72A5ODlIcyn3MQ" style="mask-type:alpha" maskUnits="userSpaceOnUse"><path d="M1931 -10L1931 944L-18 944L-18 -10L1931 -10Z"   fill="#000000" ></path></mask></defs></svg>